<?xml version="1.0" standalone="no"?><!DOCTYPE svg PUBLIC "-//W3C//DTD SVG 1.1//EN" "http://www.w3.org/Graphics/SVG/1.1/DTD/svg11.dtd"><svg t="1619684085638" class="icon" viewBox="0 0 1024 1024" version="1.1" xmlns="http://www.w3.org/2000/svg" p-id="1174" xmlns:xlink="http://www.w3.org/1999/xlink" width="32" height="32"><defs><style type="text/css"></style></defs><path d="M621.714286 146.285714h-438.857143C122.368 146.285714 73.142857 195.510857 73.142857 256v658.285714c0 60.489143 49.225143 109.714286 109.714286 109.714286h438.857143c60.489143 0 109.714286-49.225143 109.714285-109.714286v-658.285714C731.428571 195.510857 682.203429 146.285714 621.714286 146.285714zM658.285714 914.285714a36.571429 36.571429 0 0 1-36.571428 36.571429h-438.857143a36.571429 36.571429 0 0 1-36.571429-36.571429v-658.285714a36.571429 36.571429 0 0 1 36.571429-36.571429h438.857143a36.571429 36.571429 0 0 1 36.571428 36.571429v658.285714z" fill="#8a8a8a" p-id="1175"></path><path d="M841.142857 0h-438.857143c-47.616 0-87.844571 30.646857-102.985143 73.142857H841.142857a36.571429 36.571429 0 0 1 36.571429 36.571429v658.285714a36.571429 36.571429 0 0 1-36.571429 36.571429H804.571429v73.142857h36.571428c60.489143 0 109.714286-49.225143 109.714286-109.714286v-658.285714c0-60.489143-49.225143-109.714286-109.714286-109.714286z" fill="#8a8a8a" p-id="1176"></path></svg>