<svg xmlns="http://www.w3.org/2000/svg" viewBox="0 0 468.02 304.22"><defs><style>.cls-1{fill:#bcc0ca;}.cls-2{fill:#83b49e;}.cls-3{fill:#232b34;}.cls-4{fill:#8271ee;}.cls-5{fill:#a3ca80;}.cls-6{fill:#e6cd5a;}.cls-7{fill:#d36f3d;}.cls-8{fill:#6564df;}.cls-9{fill:#86b3ea;}.cls-10{fill:#6f68e4;}.cls-11{fill:#c5dc63;}.cls-12{fill:#acce79;}.cls-13{fill:#e1b452;}.cls-14{fill:#db9549;}.cls-15{opacity:0.33;}.cls-16{fill:#424c58;}.cls-17{fill:#d1996b;}.cls-18{fill:#936a48;}.cls-19{fill:#030302;}.cls-20{fill:#51381f;}.cls-21{fill:#fff;opacity:0.14;}</style></defs><g id="图层_2" data-name="图层 2"><g id="Logo_1" data-name="Logo 1"><g id="Logo"><g id="tv"><path class="cls-1" d="M210.47,297.16l-60.48,2c-.63-2.88-3-1.73-4.52-1.65-15.89.76-31.78,1.12-47.67,2.33-12.64.95-25.37,1.73-38.08,2.16-2.44.08-4.9,0-6.85,1.87-1.62-5.28,1.41-10.65,6.48-11,11.05-.76,22.11-1.31,33.17-1.95,21.66-1.24,43.31-2.42,65-3.76,12.26-.75,24.53-1.56,36.76-2.73,8.23-.78,16.39-2.24,24.58-3.4,0,2.75-.24,5.5-.12,8.24s-.24,4.63-3.82,4.63C213.14,293.89,210.23,293.8,210.47,297.16Z"/><path class="cls-1" d="M251.05,281.65c6.48-.09,12.71,1.88,19.18,2.2,9.79.47,19.54,1.79,29.32,2.45q34.93,2.37,69.89,4.46,18.87,1.14,37.77,2c6.66.31,9.22,3.15,8.86,10.26-14.35-1.42-28.7-2.87-43.15-2.91-4.42,0-8.82-1-13.25-1.17-12.88-.59-25.77-1-38.66-1.48-1.21-.05-2.13.32-2.21,1.73-14.34.41-28.61-.94-42.9-1.55-6.78-.29-13.56-.31-20.34-.46.12-1.08.21-2.59-.9-2.78-4.72-.8-3.53-4.33-3.61-7.29C251,285.28,251.05,283.46,251.05,281.65Z"/><path class="cls-2" d="M251.05,281.65c0,1.81-.05,3.63,0,5.44.08,3-1.11,6.49,3.61,7.29,1.11.19,1,1.7.9,2.78H210.47c-.24-3.36,2.67-3.27,4.41-3.27,3.58,0,4-1.81,3.82-4.63s.07-5.49.12-8.24l4.35-1.23c1.05,4.38,4,6.18,10.49,6.43,5.21.2,10.41-2.63,11.7-6.37Z"/><path class="cls-3" d="M245.36,279.85c-1.29,3.74-6.49,6.57-11.7,6.37-6.51-.25-9.44-2.05-10.49-6.43q0-4.16.07-8.31l22-.06Z"/><path class="cls-2" d="M52.87,303.86c2-1.84,4.41-1.79,6.85-1.87,12.71-.43,25.44-1.21,38.08-2.16,15.89-1.21,31.78-1.57,47.67-2.33,1.54-.08,3.89-1.23,4.52,1.65q-46.26,2.42-92.52,4.81C55.94,304,54.41,303.9,52.87,303.86Z"/><path class="cls-2" d="M318.8,299.17c.08-1.41,1-1.78,2.21-1.73,12.89.48,25.78.89,38.66,1.48,4.43.2,8.83,1.16,13.25,1.17,14.45,0,28.8,1.49,43.15,2.91-5.64,2.26-11.45.72-17.14.5-13.21-.51-26.39-1.59-39.58-2.31C345.83,300.44,332.31,299.84,318.8,299.17Z"/><path class="cls-4" d="M255.58,7.62c3.08,0,6.17-.15,9.25-.16,63.6,0,127.2,0,190.79-.23,4.85,0,5.78,1.38,5.77,5.92-.18,48-.13,96-.15,144,0,1.69-.11,3.39-.17,5.08a6.2,6.2,0,0,1-3.38-1.3,164.21,164.21,0,0,0-37.76-17c-8.62-2.56-17.15-5.87-26.37-5.83-1.93-1.19-2.67-3.26-3.77-5.08-4.52-7.47-6.94-15.88-10.59-23.75-6-21.23-15.6-40.48-31.95-55.71-7-6.55-15.2-11.56-24.72-13.94-9.12-3.66-18.78-4.35-28.41-5.28-8.51-.82-17.11-.9-25.4-3.51-6.62-2.08-10.6-6.4-12.28-13.09C255.6,14.36,255.81,11,255.58,7.62Z"/><path class="cls-5" d="M200.07,264.2l-38.87-.27c.18-2.28,2.11-3.32,3.48-4.69q50.74-50.82,101.55-101.59c1.94-1.94,4.21-3.71,4.24-6.84a38,38,0,0,1,12.92-3.55,21.32,21.32,0,0,1-.12,4.6c-3.26,13.89-3.89,28-3.5,42.16a20.36,20.36,0,0,0,1.92,8.89c.85,5.89,3.49,11.07,6.21,16.26,3.73,7.11,10.07,12,15.08,18-.71.26-1.61.32-2.1.81-7.58,7.48-15.1,15-22.66,22.53a4.29,4.29,0,0,0-1.24,3.35L206,264C204.05,264,202.06,264.14,200.07,264.2Z"/><path class="cls-6" d="M460.49,264l-103.77-.11-13.18-5.1c1.19-1.39,2.31-2.87,3.6-4.17q26.3-26.34,52.62-52.66c9.24-9.27,18.38-18.62,27.57-27.94,9.75,5.61,19.72,10.71,30.83,13.11,2.54.55,2.42,2.39,2.41,4.27Q460.53,227.71,460.49,264Z"/><path class="cls-7" d="M255.58,7.62c.23,3.36,0,6.74.86,10.09,1.68,6.69,5.66,11,12.28,13.09,8.29,2.61,16.89,2.69,25.4,3.51,9.63.93,19.29,1.62,28.41,5.28-.08,2.29-1.89,3.43-3.28,4.81q-21.81,21.87-43.66,43.71c-1.26,1.27-3,2.25-3.2,4.34-8.22-4.8-17.09-7.54-26.42-9.35-14-2.72-28.32-4.53-41.54-10.6-10.62-4.86-13.65-13.12-8.16-23.16,2.74-5,5.66-10,7.94-15.16,4.12-9.43,1.27-17.58-7.53-22.93-2-1.19-3.86-2.47-5.79-3.7V7.42Z"/><path class="cls-2" d="M460.49,264q0-36.3.08-72.6c0-1.88.13-3.72-2.41-4.27-11.11-2.4-21.08-7.5-30.84-13.11-5.32-4.66-11.52-8.22-16.43-13.42-6.55-6.93-13.31-13.68-17.33-22.54,9.22,0,17.75,3.27,26.37,5.83a164.21,164.21,0,0,1,37.76,17,6.2,6.2,0,0,0,3.38,1.3c.12,9.09.32,18.17.34,27.25q.09,35.14,0,70.29C461.41,261.2,462.15,262.9,460.49,264Z"/><path class="cls-2" d="M343.54,258.8l13.18,5.1-79.74,0a4.29,4.29,0,0,1,1.24-3.35c7.56-7.51,15.08-15,22.66-22.53.49-.49,1.39-.55,2.1-.81A141.1,141.1,0,0,0,343.54,258.8Z"/><path class="cls-8" d="M7.56,20.51C6.8,7.43,6.8,7.41,19.54,7.43l86.09.11c.15,2.31,2.09,3.35,3.46,4.72Q178.3,81.55,247.55,150.78c1.49,1.49,3.53,2.66,3.61,5.15l-42.63,15.32c-.5-4-2.87-7.12-4.63-10.51-5-9.72-12.76-16-23.73-18.05-10.44-1.95-20.94-1.23-31.21.49-14.48,2.42-29,4.38-43.58,3.09-11.41-1-21.36-5.38-27.49-16.13-6.38-11.2-8.23-23.76-11.14-36C62,74.15,54,55.93,38.93,41.46A113.67,113.67,0,0,0,7.56,20.51Z"/><path class="cls-9" d="M7.56,20.51a113.67,113.67,0,0,1,31.37,21C54,55.93,62,74.15,66.75,94.18c2.91,12.2,4.76,24.76,11.14,36C84,140.89,94,145.27,105.38,146.27c14.61,1.29,29.1-.67,43.58-3.09,10.27-1.72,20.77-2.44,31.21-.49,11,2.05,18.69,8.33,23.73,18.05,1.76,3.39,4.13,6.55,4.63,10.51l-21.72,8.42c-7.92,3.06-16.11,5.4-23.77,9.14a21.78,21.78,0,0,0-2.68.64,402.56,402.56,0,0,1-39.05,12.44c-13.47,3.68-27.12,6.73-41.15,7.93-15.69,1.33-31.07.59-46.13-4.34-9.8-3.2-18.28-8.77-26.53-14.76,0-9.25-.14-18.5-.14-27.75q0-68.46.06-136.92C7.42,24.21,7.51,22.36,7.56,20.51Z"/><path class="cls-10" d="M251.16,155.94c-.08-2.5-2.12-3.67-3.61-5.16Q178.34,81.51,109.09,12.26c-1.37-1.37-3.31-2.41-3.46-4.72h85.26c1.93,1.23,3.84,2.51,5.79,3.7,8.8,5.35,11.65,13.5,7.53,22.93-2.28,5.21-5.2,10.15-7.94,15.16-5.49,10-2.46,18.3,8.16,23.16,13.22,6.07,27.5,7.88,41.54,10.6,9.33,1.81,18.2,4.55,26.42,9.35A33.07,33.07,0,0,1,285,109c4.5,13,.43,25.58-1.62,38.27a38,38,0,0,0-12.92,3.55Z"/><path class="cls-11" d="M7.5,190.72c8.25,6,16.73,11.56,26.53,14.76,15.06,4.93,30.44,5.67,46.13,4.34,14-1.2,27.68-4.25,41.15-7.93a402.56,402.56,0,0,0,39.05-12.44,21.78,21.78,0,0,1,2.68-.64c-.13,2.91-2.13,4.67-4,6.53Q127,227.43,94.88,259.53c-1.27,1.28-3,2.28-3.18,4.38-27,0-54,.06-81.06.2-2.74,0-3.3-.94-3.29-3.46C7.46,237.34,7.47,214,7.5,190.72Z"/><path class="cls-12" d="M91.7,263.91c.16-2.1,1.91-3.1,3.18-4.38q32.06-32.11,64.17-64.19c1.86-1.86,3.86-3.62,4-6.53,7.66-3.74,15.85-6.08,23.77-9.14l21.72-8.42,42.63-15.32,19.31-5.12c0,3.13-2.3,4.9-4.24,6.84q-50.79,50.79-101.55,101.59c-1.37,1.37-3.3,2.41-3.48,4.69Z"/><path class="cls-13" d="M343.54,258.8A141.1,141.1,0,0,1,303,237.18c-5-6-11.35-10.9-15.08-18-2.72-5.19-5.36-10.37-6.21-16.26,2.58.37,3.85-1.58,5.34-3.08,28.94-29,58.07-57.74,86.41-87.3,1.59-1.66,3.06-3.55,5.76-3.29,3.65,7.87,6.07,16.28,10.59,23.75,1.1,1.82,1.84,3.89,3.77,5.08,4,8.86,10.78,15.61,17.33,22.54,4.91,5.2,11.11,8.76,16.43,13.42C418.14,183.35,409,192.7,399.76,202q-26.28,26.37-52.62,52.66C345.85,255.93,344.73,257.41,343.54,258.8Z"/><path class="cls-14" d="M379.2,109.24c-2.7-.26-4.17,1.63-5.76,3.29C345.1,142.09,316,170.87,287,199.83c-1.49,1.5-2.76,3.45-5.34,3.08a20.36,20.36,0,0,1-1.92-8.89c-.39-14.19.24-28.27,3.5-42.16a21.32,21.32,0,0,0,.12-4.6C285.44,134.57,289.51,122,285,109a33.07,33.07,0,0,0-12.62-16.54c.19-2.09,1.94-3.07,3.2-4.34Q297.4,66.22,319.25,44.4c1.39-1.38,3.2-2.52,3.28-4.81C332.05,42,340.21,47,347.25,53.53,363.6,68.76,373.2,88,379.2,109.24Z"/><rect id="MAsk" class="cls-15" x="2.02" y="2.01" width="463" height="266" rx="10"/><path class="cls-16" d="M223.24,271.48l-23.17-.29v-7c2-.06,4-.19,6-.2l70.94-.13,79.74,0,103.77.11c1.66-1.11.92-2.81.92-4.23q.06-35.14,0-70.29c0-9.08-.22-18.16-.35-27.25.07-1.69.18-3.39.18-5.08,0-48,0-96,.15-144,0-4.54-.92-5.94-5.77-5.92-63.59.22-127.19.19-190.79.23-3.08,0-6.17.11-9.25.16l-64.7-.2q0-3.61,0-7.24C192.52.12,194.21,0,195.9,0L457.51.05c9,0,10.34,1.4,10.34,10.49v251.4c0,7.59-1.83,9.41-9.62,9.41l-213,.07ZM186.2.07,10.64,0C2,0,0,2.05,0,10.62V260.73c0,8.58,2.06,10.65,10.63,10.65l141.74,0c15.9,0,31.8-.1,47.7-.15v-7l-38.87-.27-69.5,0c-27,0-54,.06-81.06.2-2.74,0-3.3-.94-3.29-3.46.11-23.31.12-46.62.15-69.93,0-9.25-.14-18.5-.14-27.75q0-68.46.06-136.92c0-1.84.09-3.69.14-5.54C6.8,7.43,6.8,7.41,19.54,7.43l86.09.11h85.26V7.42q0-3.61,0-7.24C189.29.15,187.74.07,186.2.07Z"/></g><g id="Bear"><path class="cls-17" d="M196,62.39c1.26,1.61,2.39.34,3.48-.22a75.71,75.71,0,0,1,37.06-8.87A77.29,77.29,0,0,1,269.63,62c1.05.52,2,1.59,3.39,1a4,4,0,0,0,1.78,1.62A120.82,120.82,0,0,1,306,92.84c5.85,7.56,10.44,15.87,15.27,24-.25,1.67.84,2.93,1.46,4.29,7,15.3,11.39,31.32,12,48.16.49,13.73-.78,27.38-5.51,40.42-6.68,18.42-20.16,29.85-38.26,36.34-12.71,4.56-25.92,6.57-39.29,7.26-19.14,1-38.27.85-57.19-2.9-10-2-19.72-5-28.65-10.17C148.66,230.43,139.92,215,136.54,196c-4.75-26.61-.67-52,10.74-76.31a6,6,0,0,0,1-2.86c1.84-3.55,3.7-7.08,5.75-10.54,9.79-16.5,22.29-30.33,38.71-40.48C194.12,65,195.84,64.39,196,62.39Zm38.94,74.32c-27-1-48.77,22.27-49,48-.3,27.5,21.81,49.68,48.56,49.61,27.72-.08,48.81-21.29,49.09-48.76S261.09,136.12,234.94,136.71Zm41.4-22.26a9.79,9.79,0,0,0-9.94,9.63,9.81,9.81,0,1,0,9.94-9.63Zm-83.26,0a9.61,9.61,0,0,0-9.62,9.93,9.74,9.74,0,1,0,19.48-.18A9.72,9.72,0,0,0,193.08,114.46Z"/><path class="cls-18" d="M321.27,116.89c-4.83-8.18-9.42-16.49-15.27-24a120.82,120.82,0,0,0-31.2-28.23A4,4,0,0,1,273,63c6.32-12.67,16.61-19.9,30.57-21.52,21.93-2.54,39.36,12.77,42.88,32.17,2.93,16.14-6.17,34.37-21,41.38C324.1,115.68,322.68,116.27,321.27,116.89Z"/><path class="cls-18" d="M196,62.39c-.16,2-1.88,2.63-3.22,3.46-16.42,10.15-28.92,24-38.71,40.48-2,3.46-3.91,7-5.75,10.54-20.91-6.61-35-34.61-19.28-58.34,8.15-12.3,20.12-18.28,34.75-17.3C178.19,42.2,189.29,49.21,196,62.39Z"/><path class="cls-18" d="M234.94,136.71c26.15-.59,48.88,21.48,48.61,48.82s-21.37,48.68-49.09,48.76c-26.75.07-48.86-22.11-48.56-49.61C186.17,159,208,135.67,234.94,136.71Zm-5.08,55.47c0,2,0,3.91,0,5.87-.07,3.37-1.68,4.37-4.81,3-1.69-.76-3.35-1.59-5-2.45-1.39-.73-2.84-1.08-3.94.24s-.35,2.76.5,4a22.78,22.78,0,0,0,4.9,5.05c10.11,7.59,25.28,4.9,31.71-5.64.72-1.17,1.11-2.19.13-3.35s-2.1-1.06-3.35-.48c-2.14,1-4.27,2-6.47,2.91-2.52,1-3.72.2-3.76-2.51-.07-4.12.06-8.24-.05-12.35A5,5,0,0,1,243,181.1a30.38,30.38,0,0,0,7.76-4.39c5-4.17,4.35-8.65-1.67-11-9.38-3.6-18.89-3.22-28.36-.27a10,10,0,0,0-3.19,1.83c-3.25,2.69-3.25,5.92,0,8.59,1.58,1.28,3.25,2.8,5.13,3.34,6.49,1.87,8,6.37,7.14,12.33A4.26,4.26,0,0,0,229.86,192.18Z"/><path class="cls-19" d="M276.34,114.45a9.88,9.88,0,0,1,9.68,9.92,9.81,9.81,0,1,1-19.62-.29A9.79,9.79,0,0,1,276.34,114.45Z"/><path class="cls-19" d="M193.08,114.46a9.72,9.72,0,0,1,9.86,9.75,9.74,9.74,0,1,1-19.48.18A9.61,9.61,0,0,1,193.08,114.46Z"/><path class="cls-20" d="M229.86,192.18a4.26,4.26,0,0,1,0-.62c.83-6-.65-10.46-7.14-12.33-1.88-.54-3.55-2.06-5.13-3.34-3.29-2.67-3.29-5.9,0-8.59a10,10,0,0,1,3.19-1.83c9.47-2.95,19-3.33,28.36.27,6,2.32,6.63,6.8,1.67,11A30.38,30.38,0,0,1,243,181.1a5,5,0,0,0-3.29,5.31c.11,4.11,0,8.23.05,12.35,0,2.71,1.24,3.51,3.76,2.51,2.2-.88,4.33-1.91,6.47-2.91,1.25-.58,2.38-.65,3.35.48s.59,2.18-.13,3.35c-6.43,10.54-21.6,13.23-31.71,5.64a22.78,22.78,0,0,1-4.9-5.05c-.85-1.2-1.62-2.62-.5-4s2.55-1,3.94-.24c1.64.86,3.3,1.69,5,2.45,3.13,1.39,4.74.39,4.81-3C229.9,196.09,229.86,194.14,229.86,192.18Z"/></g><polyline class="cls-21" points="377.16 271.01 468.02 271.42 468.02 0 216.02 0.01"/></g></g></g></svg>